# xmcd CD database file
# Copyright (C) 1997 Ti Kan
#
# Track frame offsets:
#  183
#  12430
#  23783
#  34943
#  47088
#  61913
#  76408
#  90243
#  103485
#  116145
#  129553
#  142970
#  155775
#  169040
#  182553
#  195910
#  209985
#  222925
#  235945
#  249108
#  264338
#
# Disc length: 3711 seconds
#
# Revision: 1
# Processed by: cddbd v1.4b41PL1 Copyright (c) Steve Scherf et al.
# Submitted via: CDWizzard Release:4.35
#
DISCID=250e7d15
DTITLE=Memphis Jug Band - Memphis Jug Band - Complete Recordings 1932-193
DTITLE=4
DYEAR=1900
DGENRE=
TTITLE0=You Got to Have that Thing (Picaninny Jug Band)
TTITLE1=Tappin' that Thing (Picaninny Jug Band)
TTITLE2=Bottle it Up and Go (Picaninny Jug Band)
TTITLE3=I Got Good Taters (Picaninny Jug Band)
TTITLE4=Come Along Little Children (Picaninny Jug Band)
TTITLE5=Mary Anna Cut Off
TTITLE6=My Love is Cold
TTITLE7=Jazzbo Stomp
TTITLE8=Gator Wobble
TTITLE9=Tear it Down, Bed Slats and All
TTITLE10=Boodie Bum Bum
TTITLE11=Take your Finger Off It
TTITLE12=Little Green Slippers
TTITLE13=Fishin' in the Dark
TTITLE14=Bottle it Up and Go
TTITLE15=Insane Crazy Blues
TTITLE16=She Done Sold it Out
TTITLE17=Memphis Shakedown
TTITLE18=Rukus Juice and Chittlin'
TTITLE19=My Business Ain't Right
TTITLE20=Jug Band Quartette
EXTD=
EXTT0=
EXTT1=
EXTT2=
EXTT3=
EXTT4=
EXTT5=
EXTT6=
EXTT7=
EXTT8=
EXTT9=
EXTT10=
EXTT11=
EXTT12=
EXTT13=
EXTT14=
EXTT15=
EXTT16=
EXTT17=
EXTT18=
EXTT19=
EXTT20=
PLAYORDER=
